HIERARCHY
ROOT RootJoint
{
    OFFSET   0.000000   0.000000   0.000000
    CHANNELS 6 Xposition Yposition Zposition Xrotation Yrotation Zrotation
    JOINT pelvis_lowerback
    {
        OFFSET   0.000000   0.093605   0.000000
        CHANNELS 3 Xrotation Yrotation Zrotation
        JOINT lowerback_torso
        {
            OFFSET   0.000000   0.100000   0.000000
            CHANNELS 3 Xrotation Yrotation Zrotation
            JOINT torso_head
            {
                OFFSET   0.000000   0.282350   0.000000
                CHANNELS 3 Xrotation Yrotation Zrotation
                End Site
                {
                    OFFSET   0.000000   0.192650   0.000000
                }
            }
            JOINT rTorso_Clavicle
            {
                OFFSET  -0.001000   0.157500   0.000000
                CHANNELS 3 Xrotation Yrotation Zrotation
                JOINT rShoulder
                {
                    OFFSET  -0.117647   0.000000   0.000000
                    CHANNELS 3 Xrotation Yrotation Zrotation
                    JOINT rElbow
                    {
                        OFFSET  -0.245000   0.000000   0.000000
                        CHANNELS 3 Xrotation Yrotation Zrotation
                        JOINT rWrist
                        {
                            OFFSET  -0.240000   0.000000   0.000000
                            CHANNELS 3 Xrotation Yrotation Zrotation
                            End Site
                            {
                                OFFSET  -0.116353  -0.002500   0.000000
                            }
                        }
                    }
                }
            }
            JOINT lTorso_Clavicle
            {
                OFFSET   0.001000   0.157500   0.000000
                CHANNELS 3 Xrotation Yrotation Zrotation
                JOINT lShoulder
                {
                    OFFSET   0.117647   0.000000   0.000000
                    CHANNELS 3 Xrotation Yrotation Zrotation
                    JOINT lElbow
                    {
                        OFFSET   0.245000   0.000000   0.000000
                        CHANNELS 3 Xrotation Yrotation Zrotation
                        JOINT lWrist
                        {
                            OFFSET   0.240000   0.000000   0.000000
                            CHANNELS 3 Xrotation Yrotation Zrotation
                            End Site
                            {
                                OFFSET   0.116353  -0.002500   0.000000
                            }
                        }
                    }
                }
            }
        }
    }
    JOINT rHip
    {
        OFFSET  -0.100000  -0.051395   0.000000
        CHANNELS 3 Xrotation Yrotation Zrotation
        JOINT rKnee
        {
            OFFSET   0.000000  -0.410000   0.000000
            CHANNELS 3 Xrotation Yrotation Zrotation
            JOINT rAnkle
            {
                OFFSET   0.000000  -0.390000   0.000000
                CHANNELS 3 Xrotation Yrotation Zrotation
                JOINT rToeJoint
                {
                    OFFSET   0.000000  -0.050000   0.130000
                    CHANNELS 3 Xrotation Yrotation Zrotation
                    End Site
                    {
                        OFFSET  -0.010000   0.002000   0.060000
                    }
                }
            }
        }
    }
    JOINT lHip
    {
        OFFSET   0.100000  -0.051395   0.000000
        CHANNELS 3 Xrotation Yrotation Zrotation
        JOINT lKnee
        {
            OFFSET   0.000000  -0.410000   0.000000
            CHANNELS 3 Xrotation Yrotation Zrotation
            JOINT lAnkle
            {
                OFFSET   0.000000  -0.390000   0.000000
                CHANNELS 3 Xrotation Yrotation Zrotation
                JOINT lToeJoint
                {
                    OFFSET   0.000000  -0.050000   0.130000
                    CHANNELS 3 Xrotation Yrotation Zrotation
                    End Site
                    {
                        OFFSET   0.010000   0.002000   0.060000
                    }
                }
            }
        }
    }
}
MOTION
Frames: 8
Frame Time:   0.008333
 -2.416448   0.922433   3.999391   0.013971  -0.849274  -1.269468   2.967698  -0.396838  -0.022108  -1.640198  -3.183278  -0.034259   0.802587  -1.389809  -0.660578  -7.176257   8.226785 -14.415227 -30.717112   7.170917  27.653559 -179.998913  62.669834 179.998157   6.971260   8.343845 -17.353025  -7.981109 -10.474868  10.864094 -30.350609  -9.614407 -35.251943 179.999373 -62.491815 -179.999970   5.090508  -8.853309  18.740605   3.623229  -4.307071  -4.759164   5.379609   0.000015   0.000115  -1.400582  -3.029665   6.388760 -11.035376  -0.000027   0.000003   3.392408   2.326070   4.146177  -0.000014  -0.000000  -0.000000  -3.342777   4.143776   0.441518  -0.047823   0.000006   0.000001
 -2.416546   0.922426   3.999365   0.007047  -0.902783  -1.271191   2.916591  -0.384240  -0.013430  -1.653894  -3.171620  -0.038459   0.888278  -1.374080  -0.646554  -7.270310   8.467387 -14.657179 -31.019081   7.359086  27.682277 -179.999382  62.788039 179.999014   6.904968   8.361922 -17.367774  -8.094652 -10.714266  11.129909 -30.674494  -9.795769 -35.258316 179.999504 -62.564526 179.999867   5.054909  -8.867121  18.674916   3.663275  -4.299852  -4.754563   5.290701   0.000018   0.000125  -1.372416  -2.987873   6.406411 -10.995877  -0.000030   0.000001   3.404627   2.362285   4.151773  -0.000011  -0.000000  -0.000000  -3.347997   4.162062   0.434860  -0.044954   0.000005   0.000001
 -2.416660   0.922414   3.999363   0.000301  -0.959948  -1.271094   2.864407  -0.369770  -0.007356  -1.666602  -3.156614  -0.043001   0.969924  -1.359001  -0.634837  -7.352643   8.687265 -14.883141 -31.295412   7.528586  27.707643 -179.999746  62.912003 179.999688   6.841762   8.380710 -17.363495  -8.202684 -10.930756  11.384699 -30.977486  -9.960189 -35.258508 179.999610 -62.640220 179.999729   5.021466  -8.879925  18.617450   3.705526  -4.290510  -4.750875   5.199764   0.000021   0.000135  -1.349089  -2.945804   6.422192 -10.950773  -0.000034  -0.000001   3.418961   2.399476   4.156196  -0.000009  -0.000000  -0.000000  -3.355299   4.183123   0.428280  -0.042460   0.000004   0.000001
 -2.416786   0.922399   3.999373  -0.005684  -1.015223  -1.270308   2.813361  -0.355449  -0.001791  -1.679960  -3.141338  -0.046831   1.046169  -1.344914  -0.624452  -7.427367   8.889199 -15.092660 -31.551368   7.684053  27.731559 179.999983  63.029448 -179.999820   6.781438   8.399117 -17.353967  -8.303774 -11.128761  11.624165 -31.260271 -10.111356 -35.256980 179.999693 -62.711449 179.999631   4.989854  -8.891810  18.568528   3.746544  -4.281263  -4.747017   5.112613   0.000024   0.000140  -1.329190  -2.905634   6.437243 -10.905911  -0.000037  -0.000002   3.433198   2.435156   4.160728  -0.000007  -0.000000  -0.000000  -3.363273   4.203841   0.422040  -0.040181   0.000003   0.000001
 -2.416922   0.922384   3.999391  -0.011320  -1.067228  -1.269138   2.764115  -0.341697   0.003927  -1.693394  -3.126579  -0.049759   1.117288  -1.331760  -0.614921  -7.495809   9.075636 -15.287030 -31.789316   7.827601  27.754447 179.999785  63.139225 -179.999474   6.723707   8.416846 -17.343850  -8.397613 -11.311312  11.847837 -31.523936 -10.251152 -35.255337 179.999758 -62.777738 179.999571   4.959771  -8.902984  18.525253   3.785921  -4.272649  -4.742756   5.030589   0.000026   0.000140  -1.312229  -2.867913   6.451832 -10.862539  -0.000039  -0.000003   3.447183   2.468719   4.165642  -0.000006  -0.000000  -0.000000  -3.371423   4.223429   0.416240  -0.038020   0.000003   0.000000
 -2.417066   0.922367   3.999412  -0.016793  -1.115774  -1.267664   2.717019  -0.328593   0.010000  -1.706450  -3.112529  -0.051819   1.183601  -1.319470  -0.606046  -7.558668   9.248288 -15.467518 -32.010805   7.960536  27.776406 179.999646  63.241600 -179.999241   6.668407   8.433848 -17.334234  -8.484389 -11.480273  12.056295 -31.769630 -10.380776 -35.254097 179.999810 -62.839347 179.999539   4.931068  -8.913569  18.485631   3.823553  -4.264770  -4.738070   4.953791   0.000028   0.000137  -1.297926  -2.832674   6.466039 -10.820665  -0.000040  -0.000004   3.460805   2.500105   4.170967  -0.000005   0.000000  -0.000000  -3.379469   4.241740   0.410901  -0.035912   0.000002   0.000000
 -2.417219   0.922350   3.999434  -0.022155  -1.161010  -1.265900   2.672291  -0.316136   0.016458  -1.718842  -3.099219  -0.053095   1.245426  -1.307983  -0.597732  -7.616454   9.408423 -15.635214 -32.217066   8.083817  27.797464 179.999553  63.337023 -179.999094   6.615421   8.450143 -17.325240  -8.564493 -11.636934  12.250407 -31.998503 -10.501111 -35.253391 179.999852 -62.896600 179.999529   4.903652  -8.923636  18.448563   3.859393  -4.257603  -4.732986   4.881938   0.000029   0.000131  -1.286065  -2.799811   6.479892 -10.779977  -0.000041  -0.000004   3.473920   2.529412   4.176674  -0.000004   0.000000  -0.000000  -3.387223   4.258813   0.406015  -0.033811   0.000001   0.000000
 -2.417391   0.922323   3.999509  -0.037075  -1.211835  -1.261613   2.609386  -0.299195   0.017031  -1.705577  -3.080577  -0.060147   1.321048  -1.298194  -0.592909  -7.647054   9.534226 -15.777110 -32.338098   8.217438  27.779261 179.999650  63.518038 -179.999038   6.559073   8.466268 -17.333585  -8.633851 -11.767262  12.434475 -32.217718 -10.609616 -35.248146 179.999872 -63.006145 179.999409   4.865597  -8.938777  18.364916   3.919801  -4.236100  -4.728819   4.789706   0.000031   0.000125  -1.275709  -2.778024   6.495835 -10.728029  -0.000045  -0.000005   3.502258   2.557779   4.180522  -0.000003   0.000000  -0.000000  -3.399673   4.282902   0.398281  -0.032319   0.000001   0.000000
